# xmcd
#
# Track frame offsets:
#  150
#  12520
#  33245
#  47927
#  62970
#  80982
#  97332
#  119482
#  131337
#  147312
#  162085
#  177285
#  195900
#  217234
#  232450
#
# Disc length: 3420 seconds
#
# Revision: 0
# Processed by: cddbd v1.5.2PL0 Copyright (c) Steve Scherf et al.
# Submitted via: Collectorz.com_Music_Collector 6.11
#
DISCID=e90d5a0f
DTITLE=The Yardbirds - Birdland
DYEAR=2003
DGENRE=Blues
TTITLE0=I'm Not Talking
TTITLE1=Crying Out For Love
TTITLE2=The Nazz Are Blue
TTITLE3=For Your Love
TTITLE4=Please Don't Tell Me 'Bout The News
TTITLE5=Train Kept A Rollin'
TTITLE6=Mr. Saboteur
TTITLE7=Shapes Of Things
TTITLE8=My Blind Life
TTITLE9=Over Under Sideways Down
TTITLE10=Mr. You're A Better Man Than I
TTITLE11=Mystery Of Being
TTITLE12=Dream Within A Dream
TTITLE13=Happenings Ten Years Time Ago
TTITLE14=An Original Man
EXTD=
EXTT0=
EXTT1=
EXTT2=
EXTT3=
EXTT4=
EXTT5=
EXTT6=
EXTT7=
EXTT8=
EXTT9=
EXTT10=
EXTT11=
EXTT12=
EXTT13=
EXTT14=
PLAYORDER=
